2.5Hzlow3min_grf.mot
version=1
nRows=25
nColumns 19
inDegrees=yes
endheader
time	1_ground_force_vx	1_ground_force_vy	1_ground_force_vz	1_ground_force_px	1_ground_force_py	1_ground_force_pz	1_ground_torque_x	1_ground_torque_y	1_ground_torque_z	2_ground_force_vx	2_ground_force_vy	2_ground_force_vz	2_ground_force_px	2_ground_force_py	2_ground_force_pz	2_ground_torque_x	2_ground_torque_y	2_ground_torque_z
            3.751500	           31.991497	         1115.559848	         -137.682629	           -0.187566	            0.006074	           -0.368623	            0.086359	            3.011368	           -0.371664	           23.164960	         1242.997974	          136.527329	           -0.198043	            0.005578	           -0.644214	           -0.131795	           -7.071924	           -0.776760
            3.752000	           32.358339	         1123.128582	         -137.054952	           -0.187608	            0.006074	           -0.368641	            0.101188	            3.512146	           -0.428586	           23.279964	         1249.998537	          135.895260	           -0.198017	            0.005577	           -0.644060	           -0.134399	           -7.216438	           -0.784545
            3.752500	           32.084648	         1128.712728	         -136.067306	           -0.187607	            0.006075	           -0.368903	            0.106485	            3.746074	           -0.451593	           23.586216	         1255.895983	          134.930648	           -0.197964	            0.005577	           -0.643805	           -0.141415	           -7.529929	           -0.808999
            3.753000	           31.626826	         1135.379354	         -135.303874	           -0.187634	            0.006075	           -0.368970	            0.103996	            3.733372	           -0.444908	           24.117575	         1264.371027	          134.350561	           -0.198087	            0.005577	           -0.643895	           -0.149385	           -7.831554	           -0.832172
            3.753500	           31.214533	         1141.866161	         -134.678901	           -0.187669	            0.006076	           -0.369141	            0.101544	            3.714606	           -0.438124	           24.046406	         1271.003347	          133.482609	           -0.197988	            0.005576	           -0.643721	           -0.152362	           -8.053264	           -0.845765
            3.754000	           31.077168	         1147.812891	         -134.148632	           -0.187732	            0.006076	           -0.369219	            0.101077	            3.733198	           -0.436311	           24.256340	         1277.636682	          132.614537	           -0.197982	            0.005576	           -0.643607	           -0.156162	           -8.225419	           -0.853772
            3.754500	           31.306728	         1154.660218	         -133.477869	           -0.187757	            0.006077	           -0.369292	            0.109145	            4.025502	           -0.465345	           23.865906	         1281.873471	          131.832023	           -0.197780	            0.005575	           -0.643151	           -0.156133	           -8.386150	           -0.862459
            3.755000	           31.719917	         1161.327012	         -132.716598	           -0.187757	            0.006077	           -0.369456	            0.120883	            4.425768	           -0.505777	           23.934041	         1288.874032	          131.153038	           -0.197738	            0.005575	           -0.643169	           -0.159911	           -8.611395	           -0.876277
            3.755500	           31.950505	         1166.911011	         -131.730236	           -0.187693	            0.006078	           -0.369520	            0.135830	            4.960834	           -0.560019	           23.540139	         1294.032879	          130.045320	           -0.197753	            0.005574	           -0.642768	           -0.160083	           -8.799977	           -0.884364
            3.756000	           31.586597	         1171.952013	         -130.194425	           -0.187667	            0.006079	           -0.369803	            0.139070	            5.159881	           -0.573221	           23.843523	         1300.668561	          128.614056	           -0.197670	            0.005574	           -0.642736	           -0.167027	           -9.111342	           -0.900957
            3.756500	           30.442409	         1178.435925	         -128.925641	           -0.187727	            0.006079	           -0.369752	            0.133675	            5.174622	           -0.566125	           23.632471	         1307.116294	          127.745507	           -0.197679	            0.005574	           -0.642643	           -0.167443	           -9.261326	           -0.905117
            3.757000	           29.573076	         1182.938226	         -127.895317	           -0.187723	            0.006080	           -0.370031	            0.127518	            5.100786	           -0.551480	           23.936605	         1313.567227	          126.501298	           -0.197634	            0.005574	           -0.642672	           -0.174895	           -9.597725	           -0.924296
            3.757500	           28.520090	         1188.341803	         -126.906541	           -0.187642	            0.006081	           -0.370205	            0.122426	            5.101092	           -0.544761	           23.776347	         1318.910497	          125.534930	           -0.197648	            0.005573	           -0.642452	           -0.178236	           -9.886998	           -0.941052
            3.758000	           28.108812	         1193.024956	         -126.014154	           -0.187802	            0.006082	           -0.370394	            0.126292	            5.360243	           -0.566180	           23.055163	         1323.883836	          124.426694	           -0.197493	            0.005572	           -0.642075	           -0.174492	          -10.019774	           -0.941720
            3.758500	           28.064695	         1199.148882	         -124.841382	           -0.187658	            0.006081	           -0.370352	            0.135821	            5.803365	           -0.604179	           22.473862	         1329.042007	          123.319057	           -0.197426	            0.005572	           -0.641941	           -0.172357	          -10.192704	           -0.945760
            3.759000	           28.066425	         1204.011747	         -123.765806	           -0.187561	            0.006082	           -0.370590	            0.145324	            6.234202	           -0.640842	           21.842487	         1335.120058	          122.449358	           -0.197414	            0.005572	           -0.641883	           -0.169216	          -10.343290	           -0.948626
            3.759500	           27.519516	         1210.133020	         -121.995643	           -0.187754	            0.006082	           -0.370531	            0.147498	            6.486022	           -0.653867	           21.312484	         1338.991026	          120.867820	           -0.197266	            0.005571	           -0.641540	           -0.169381	          -10.641605	           -0.960595
            3.760000	           26.560354	         1213.190425	         -120.329300	           -0.187695	            0.006084	           -0.370867	            0.142259	            6.497912	           -0.644490	           20.873080	         1343.781133	          119.805743	           -0.197211	            0.005571	           -0.641346	           -0.170183	          -10.956150	           -0.976803
            3.760500	           25.555067	         1218.410691	         -118.607716	           -0.187630	            0.006084	           -0.371056	            0.135784	            6.473883	           -0.630208	           20.339960	         1348.571069	          118.696771	           -0.197078	            0.005571	           -0.641193	           -0.169022	          -11.206454	           -0.986355
            3.761000	           24.136852	         1222.369909	         -117.119795	           -0.187757	            0.006085	           -0.371172	            0.128276	            6.496338	           -0.622438	           19.804218	         1354.097477	          117.684285	           -0.197093	            0.005570	           -0.641144	           -0.166617	          -11.392273	           -0.990100
            3.761500	           23.635042	         1227.591648	         -115.720442	           -0.187765	            0.006085	           -0.371132	            0.131920	            6.851833	           -0.645896	           19.175966	         1359.256072	          116.342018	           -0.197177	            0.005570	           -0.641045	           -0.165105	          -11.703179	           -1.001703
            3.762000	           23.179238	         1231.912038	         -114.325083	           -0.187786	            0.006086	           -0.371345	            0.135157	            7.183242	           -0.666626	           18.083987	         1363.123168	          115.276936	           -0.197032	            0.005569	           -0.640814	           -0.156253	          -11.777940	           -0.996040
            3.762500	           22.952583	         1235.331506	         -113.025863	           -0.187580	            0.006086	           -0.371537	            0.140387	            7.555753	           -0.691309	           17.134655	         1366.437452	          114.444456	           -0.196866	            0.005569	           -0.640508	           -0.149803	          -11.946340	           -1.000553
            3.763000	           22.772067	         1238.389997	         -111.636583	           -0.187591	            0.006088	           -0.371822	            0.141549	            7.697701	           -0.693921	           16.368510	         1370.859220	          113.099621	           -0.196901	            0.005568	           -0.640359	           -0.144280	          -12.083407	           -0.996914
            3.763500	           22.042850	         1241.806419	         -109.648283	           -0.187614	            0.006088	           -0.371935	            0.137632	            7.753630	           -0.684625	           15.742395	         1375.464404	          112.083889	           -0.196767	            0.005568	           -0.640268	           -0.141226	          -12.339387	           -1.005512
